<svg id="svg" version="1.1" xmlns="http://www.w3.org/2000/svg" xmlns:xlink="http://www.w3.org/1999/xlink" width="400" height="400" viewBox="0, 0, 400,400">
<g id="svgg">
    <path id="path0" d="M20.192 132.013 C 20.037 132.264,20.098 132.658,20.328 132.888 C 20.866 133.426,22.119 132.957,21.900 132.300 C 21.677 131.631,20.546 131.441,20.192 132.013 M19.600 135.200 C 19.600 135.420,19.375 135.606,19.100 135.613 C 18.136 135.637,17.201 136.698,16.957 138.043 L 16.711 139.400 17.437 138.400 C 17.836 137.850,18.666 136.923,19.281 136.340 C 20.462 135.220,20.658 134.800,20.000 134.800 C 19.780 134.800,19.600 134.980,19.600 135.200 M379.600 135.018 C 379.600 135.432,381.649 137.284,381.867 137.067 C 381.987 136.947,381.624 136.388,381.061 135.824 C 380.065 134.828,379.600 134.572,379.600 135.018 M284.138 160.834 C 274.510 164.537,276.961 178.565,287.236 178.565 C 297.481 178.565,299.801 164.426,290.148 160.815 C 287.490 159.820,286.770 159.823,284.138 160.834 M331.067 184.029 C 328.119 185.044,326.272 186.230,324.017 188.559 C 321.695 190.956,321.654 190.936,321.517 187.300 L 321.400 184.200 314.200 184.086 C 310.240 184.024,306.594 184.072,306.097 184.195 L 305.194 184.417 305.297 209.508 L 305.400 234.600 313.400 234.600 L 321.400 234.600 321.600 218.600 C 321.820 201.011,321.672 202.006,324.520 198.916 C 328.673 194.411,335.696 195.110,338.362 200.294 C 339.442 202.395,339.713 205.713,339.950 219.800 L 340.200 234.600 348.090 234.708 L 355.981 234.817 356.241 233.779 C 356.777 231.642,356.093 200.748,355.457 198.400 C 353.936 192.785,352.983 190.923,350.256 188.230 C 345.624 183.657,337.389 181.854,331.067 184.029 M61.157 184.580 C 46.114 188.728,45.873 209.404,60.816 213.842 C 65.580 215.257,72.952 213.819,75.648 210.949 L 76.560 209.978 75.479 208.897 C 74.411 207.830,74.384 207.825,73.299 208.532 C 64.416 214.319,53.600 209.274,53.600 199.344 C 53.600 189.415,64.894 183.918,73.030 189.886 L 74.261 190.789 75.391 189.609 C 78.446 186.421,67.941 182.709,61.157 184.580 M279.297 184.327 C 278.900 184.583,278.816 189.913,278.897 209.625 L 279.000 234.600 287.000 234.600 L 295.000 234.600 295.000 209.400 L 295.000 184.200 287.400 184.101 C 283.220 184.047,279.574 184.149,279.297 184.327 M191.200 189.177 L 191.200 191.554 189.500 191.677 C 186.874 191.867,186.846 194.531,189.469 194.721 L 191.137 194.843 191.269 202.121 C 191.421 210.567,191.821 211.932,194.600 213.490 C 197.548 215.142,203.191 214.309,202.652 212.301 C 202.520 211.805,202.408 211.289,202.405 211.153 C 202.402 211.018,201.170 210.995,199.668 211.102 C 195.384 211.409,195.200 211.033,195.200 201.963 L 195.200 194.834 198.300 194.717 L 201.400 194.600 201.400 193.200 L 201.400 191.800 198.300 191.683 L 195.200 191.566 195.200 189.183 L 195.200 186.800 193.200 186.800 L 191.200 186.800 191.200 189.177 M89.000 191.949 C 84.071 193.253,81.148 197.039,80.873 202.474 C 80.119 217.387,102.702 218.729,103.897 203.842 C 104.539 195.845,97.004 189.830,89.000 191.949 M110.581 192.106 C 109.933 193.795,110.622 214.194,111.332 214.330 C 113.845 214.814,113.909 214.640,114.071 206.902 C 114.276 197.070,115.548 194.996,121.369 195.004 C 126.989 195.012,127.729 196.305,128.000 206.595 C 128.219 214.908,128.195 214.839,130.666 214.219 L 131.669 213.967 131.531 205.684 C 131.377 196.497,131.253 195.983,128.626 193.676 C 125.483 190.917,117.946 190.973,115.622 193.774 C 114.857 194.695,114.000 194.540,114.000 193.480 C 114.000 191.838,111.127 190.684,110.581 192.106 M145.597 191.948 C 135.393 195.315,134.960 209.809,144.952 213.548 C 150.751 215.717,159.956 212.964,157.442 209.812 L 156.522 208.658 155.361 209.459 C 150.227 213.001,141.600 210.297,141.600 205.147 L 141.600 204.015 150.700 203.908 L 159.800 203.800 159.927 202.483 C 160.565 195.841,152.273 189.745,145.597 191.948 M171.495 192.317 C 159.488 196.624,162.962 214.400,175.811 214.400 C 179.285 214.400,184.800 211.649,184.800 209.915 C 184.800 208.710,181.983 208.266,180.899 209.300 C 174.563 215.345,164.682 206.869,168.757 198.884 C 171.040 194.412,177.721 193.344,181.457 196.853 C 182.372 197.713,183.301 197.524,184.345 196.266 C 185.656 194.686,180.025 191.633,175.800 191.633 C 174.480 191.633,172.543 191.941,171.495 192.317 M228.223 192.171 C 220.399 195.087,221.629 202.486,230.224 204.208 C 236.239 205.413,237.610 206.112,237.587 207.962 C 237.548 211.187,231.832 212.347,226.600 210.192 C 225.280 209.649,224.160 209.203,224.110 209.202 C 224.061 209.201,223.730 209.762,223.374 210.450 C 222.512 212.116,223.055 212.645,226.647 213.641 C 234.196 215.735,240.720 213.356,241.077 208.381 C 241.362 204.418,239.721 203.043,233.035 201.639 C 227.321 200.440,225.682 198.893,227.515 196.429 C 229.132 194.255,232.698 194.047,238.270 195.803 C 239.033 196.044,240.400 194.542,240.400 193.463 C 240.400 192.140,230.988 191.141,228.223 192.171 M252.797 191.948 C 242.593 195.315,242.160 209.809,252.152 213.548 C 257.951 215.717,267.156 212.964,264.642 209.812 L 263.722 208.658 262.561 209.459 C 257.427 213.001,248.800 210.297,248.800 205.147 L 248.800 204.015 257.900 203.908 L 267.000 203.800 267.127 202.483 C 267.765 195.841,259.473 189.745,252.797 191.948 M150.928 194.829 C 153.719 195.604,157.122 199.708,156.205 201.192 C 156.049 201.445,153.221 201.600,148.776 201.600 L 141.600 201.600 141.600 200.580 C 141.600 196.744,146.638 193.637,150.928 194.829 M258.128 194.829 C 260.919 195.604,264.322 199.708,263.405 201.192 C 263.249 201.445,260.421 201.600,255.976 201.600 L 248.800 201.600 248.800 200.580 C 248.800 196.744,253.838 193.637,258.128 194.829 M97.122 196.274 C 102.961 200.926,100.168 210.590,92.832 211.120 C 84.118 211.751,81.039 199.078,89.000 195.344 C 91.084 194.367,95.340 194.854,97.122 196.274 M207.360 201.359 C 206.515 203.563,207.015 203.792,212.925 203.911 L 218.450 204.023 218.325 202.511 L 218.200 201.000 212.892 200.888 C 208.540 200.797,207.544 200.882,207.360 201.359 M18.000 263.029 C 18.000 263.453,19.236 264.497,19.467 264.267 C 19.592 264.141,19.417 263.760,19.076 263.419 C 18.441 262.784,18.000 262.624,18.000 263.029 M380.100 264.198 C 379.357 265.042,379.494 265.273,380.400 264.707 C 380.840 264.432,381.200 264.071,381.200 263.904 C 381.200 263.427,380.649 263.575,380.100 264.198 " stroke="none" fill="#f6f9fa" fill-rule="evenodd"></path>
    <path id="path1" d="M22.600 134.745 C 22.477 135.064,22.059 135.204,21.595 135.083 C 21.158 134.968,20.800 135.048,20.800 135.259 C 20.800 135.470,20.261 136.219,19.602 136.922 C 18.943 137.625,18.403 138.416,18.402 138.680 C 18.401 138.944,18.175 139.304,17.900 139.480 C 17.108 139.987,17.173 260.022,17.965 260.642 C 18.288 260.895,18.418 261.375,18.270 261.763 C 18.126 262.136,18.142 262.364,18.305 262.268 C 18.467 262.173,19.140 262.783,19.800 263.625 C 20.615 264.663,21.225 265.088,21.700 264.950 C 22.116 264.829,22.400 264.960,22.400 265.273 C 22.400 266.033,376.834 266.060,377.320 265.300 C 377.496 265.025,377.892 264.800,378.199 264.800 C 378.979 264.800,380.558 263.249,381.353 261.700 C 381.720 260.985,382.151 260.400,382.310 260.400 C 382.470 260.400,382.600 233.220,382.600 200.000 C 382.600 159.764,382.466 139.600,382.198 139.600 C 381.976 139.600,381.536 139.015,381.220 138.300 C 380.903 137.585,380.320 136.651,379.922 136.225 C 379.525 135.798,379.200 135.309,379.200 135.137 C 379.200 134.966,378.904 134.939,378.542 135.078 C 378.178 135.217,377.687 135.078,377.442 134.765 C 376.789 133.931,22.920 133.911,22.600 134.745 M291.711 160.796 C 297.796 163.842,298.789 172.466,293.568 176.935 C 286.687 182.825,275.768 176.579,277.538 167.765 C 278.884 161.066,285.626 157.751,291.711 160.796 M341.991 183.023 C 347.252 184.262,351.651 187.654,353.928 192.225 C 356.492 197.372,356.523 197.656,356.695 217.300 L 356.852 235.200 348.054 235.200 L 339.257 235.200 339.129 219.300 L 339.000 203.400 337.800 201.018 C 335.395 196.243,329.729 195.158,325.611 198.684 C 322.393 201.438,322.419 201.272,322.409 219.300 L 322.400 235.200 313.597 235.200 L 304.794 235.200 304.897 209.500 L 305.000 183.800 312.800 183.687 C 322.855 183.540,322.400 183.411,322.400 186.408 C 322.400 189.244,322.556 189.298,324.619 187.165 C 328.534 183.118,335.424 181.475,341.991 183.023 M68.342 183.619 C 71.225 184.086,74.928 185.814,76.374 187.365 L 77.349 188.410 76.554 189.474 C 75.206 191.280,74.550 191.499,73.092 190.630 C 69.462 188.466,68.636 188.200,65.588 188.210 C 58.759 188.233,54.500 192.507,54.434 199.400 C 54.347 208.587,64.455 213.650,72.272 208.337 C 74.335 206.934,74.312 206.934,75.900 208.422 C 77.744 210.150,77.408 210.881,73.790 213.019 C 64.880 218.284,52.629 213.591,49.790 203.824 C 46.757 193.390,53.409 184.623,65.400 183.252 C 65.620 183.227,66.944 183.392,68.342 183.619 M295.367 183.843 C 295.935 184.061,296.000 186.707,296.000 209.643 L 296.000 235.200 287.200 235.200 L 278.400 235.200 278.400 209.667 C 278.400 195.623,278.520 184.013,278.667 183.867 C 279.000 183.533,294.503 183.511,295.367 183.843 M194.967 186.243 C 195.436 186.423,195.600 187.044,195.600 188.635 C 195.600 191.092,195.641 191.119,199.800 191.297 L 202.200 191.400 202.200 193.200 L 202.200 195.000 199.800 195.103 C 195.248 195.298,195.600 194.757,195.600 201.548 C 195.600 209.983,196.501 211.615,200.498 210.418 C 201.984 209.973,202.209 209.998,202.694 210.661 C 206.142 215.374,195.971 216.932,192.231 212.264 L 191.000 210.728 190.867 203.267 C 190.724 195.231,190.719 195.217,188.508 195.206 C 187.465 195.201,187.167 195.007,186.964 194.200 C 186.511 192.396,187.074 191.200,188.375 191.200 C 190.513 191.200,190.800 190.891,190.800 188.591 C 190.800 187.266,190.988 186.391,191.300 186.265 C 192.024 185.973,194.229 185.960,194.967 186.243 M97.014 191.657 C 109.407 197.068,105.861 214.910,92.381 214.975 C 77.877 215.045,75.303 194.791,89.353 191.154 C 91.031 190.720,95.547 191.016,97.014 191.657 M125.933 191.454 C 130.965 193.079,132.140 195.735,132.330 205.914 C 132.491 214.544,132.424 214.800,129.984 214.800 C 127.084 214.800,127.200 215.129,127.200 206.918 C 127.200 197.012,126.502 195.600,121.607 195.600 C 116.032 195.600,115.041 197.217,114.866 206.600 C 114.718 214.581,114.647 214.803,112.251 214.794 C 109.455 214.784,109.576 215.350,109.694 202.772 L 109.800 191.400 112.100 191.280 C 114.330 191.164,114.400 191.191,114.400 192.180 C 114.400 193.422,114.736 193.447,116.606 192.344 C 119.345 190.728,122.695 190.408,125.933 191.454 M154.316 192.157 C 157.751 193.898,159.651 196.615,160.444 200.919 C 161.187 204.947,161.540 204.800,151.151 204.800 C 141.217 204.800,141.072 204.859,143.694 207.846 C 146.475 211.014,152.557 211.354,155.692 208.517 C 157.391 206.979,159.572 210.735,157.895 212.311 C 152.730 217.163,141.645 215.161,138.395 208.790 C 133.029 198.272,143.923 186.891,154.316 192.157 M181.109 191.999 C 185.146 193.736,186.183 196.205,183.521 197.743 L 182.042 198.598 180.721 197.333 C 176.376 193.171,169.254 195.851,168.535 201.917 C 167.687 209.082,175.682 213.342,180.881 208.495 C 183.361 206.183,186.526 209.211,184.171 211.643 C 178.109 217.905,166.208 214.983,163.968 206.683 C 161.132 196.177,171.058 187.675,181.109 191.999 M238.633 191.893 C 241.005 192.770,241.418 194.036,239.907 195.793 C 238.972 196.881,238.969 196.881,237.385 196.218 C 233.827 194.727,228.453 195.154,227.751 196.983 C 226.935 199.109,228.155 199.942,233.875 201.167 C 239.748 202.424,241.581 203.783,241.902 207.116 C 242.549 213.854,233.122 217.314,224.372 213.550 C 222.098 212.572,221.787 211.977,222.659 210.275 C 223.593 208.452,223.794 208.410,226.462 209.487 C 231.338 211.457,236.800 210.672,236.800 208.001 C 236.800 206.492,235.633 205.865,231.600 205.205 C 226.109 204.306,223.654 202.794,222.846 199.813 C 221.051 193.186,229.999 188.697,238.633 191.893 M261.516 192.157 C 264.951 193.898,266.851 196.615,267.644 200.919 C 268.387 204.947,268.740 204.800,258.351 204.800 C 248.417 204.800,248.272 204.859,250.894 207.846 C 253.675 211.014,259.757 211.354,262.892 208.517 C 264.591 206.979,266.772 210.735,265.095 212.311 C 259.930 217.163,248.845 215.161,245.595 208.790 C 240.229 198.272,251.123 186.891,261.516 192.157 M89.862 195.783 C 86.711 196.907,85.200 199.255,85.200 203.027 C 85.200 212.531,98.508 213.262,99.484 203.811 C 100.096 197.875,95.276 193.853,89.862 195.783 M145.710 196.014 C 144.028 196.870,142.400 198.902,142.400 200.147 C 142.400 200.725,143.163 200.800,149.000 200.800 C 156.026 200.800,156.033 200.798,155.000 198.801 C 153.360 195.629,149.024 194.329,145.710 196.014 M252.910 196.014 C 251.228 196.870,249.600 198.902,249.600 200.147 C 249.600 200.725,250.363 200.800,256.200 200.800 C 263.226 200.800,263.233 200.798,262.200 198.801 C 260.560 195.629,256.224 194.329,252.910 196.014 M219.000 202.600 L 219.000 204.600 213.000 204.600 L 207.000 204.600 206.873 203.058 C 206.648 200.318,206.530 200.366,213.092 200.489 L 219.000 200.600 219.000 202.600 " stroke="none" fill="#0474b4" fill-rule="evenodd"></path>
    <path id="path2" d="M24.000 133.600 C 24.000 133.820,24.450 134.000,25.000 134.000 C 25.550 134.000,26.000 133.820,26.000 133.600 C 26.000 133.380,25.550 133.200,25.000 133.200 C 24.450 133.200,24.000 133.380,24.000 133.600 M28.912 133.495 C 29.964 133.577,31.584 133.576,32.512 133.492 C 33.440 133.408,32.580 133.341,30.600 133.342 C 28.620 133.343,27.860 133.412,28.912 133.495 M49.500 133.489 C 50.215 133.578,51.385 133.578,52.100 133.489 C 52.815 133.401,52.230 133.328,50.800 133.328 C 49.370 133.328,48.785 133.401,49.500 133.489 M122.300 133.500 C 127.855 133.562,136.945 133.562,142.500 133.500 C 148.055 133.437,143.510 133.386,132.400 133.386 C 121.290 133.386,116.745 133.437,122.300 133.500 M164.500 133.498 C 166.425 133.571,169.575 133.571,171.500 133.498 C 173.425 133.425,171.850 133.365,168.000 133.365 C 164.150 133.365,162.575 133.425,164.500 133.498 M217.900 133.500 C 223.235 133.563,231.965 133.563,237.300 133.500 C 242.635 133.437,238.270 133.385,227.600 133.385 C 216.930 133.385,212.565 133.437,217.900 133.500 M373.012 133.619 C 373.106 133.772,374.075 133.884,375.165 133.867 C 376.255 133.850,377.053 133.685,376.938 133.500 C 376.824 133.315,375.855 133.204,374.785 133.252 C 373.715 133.301,372.917 133.466,373.012 133.619 M18.600 136.946 C 17.478 138.250,17.135 138.799,17.451 138.787 C 17.841 138.773,19.358 136.820,19.139 136.613 C 19.063 136.540,18.820 136.690,18.600 136.946 M16.400 141.400 C 16.400 141.950,16.580 142.400,16.800 142.400 C 17.020 142.400,17.200 141.950,17.200 141.400 C 17.200 140.850,17.020 140.400,16.800 140.400 C 16.580 140.400,16.400 140.850,16.400 141.400 M382.800 146.576 C 382.800 150.263,382.961 152.852,383.200 153.000 C 383.460 153.161,383.600 151.004,383.600 146.824 C 383.600 142.808,383.450 140.400,383.200 140.400 C 382.951 140.400,382.800 142.725,382.800 146.576 M280.378 163.100 L 279.000 164.600 280.500 163.222 C 281.896 161.938,282.184 161.600,281.878 161.600 C 281.812 161.600,281.137 162.275,280.378 163.100 M293.600 163.000 C 294.346 163.770,295.047 164.400,295.157 164.400 C 295.267 164.400,294.746 163.770,294.000 163.000 C 293.254 162.230,292.553 161.600,292.443 161.600 C 292.333 161.600,292.854 162.230,293.600 163.000 M382.914 164.600 C 382.917 165.700,382.995 166.103,383.087 165.495 C 383.179 164.886,383.177 163.986,383.082 163.495 C 382.987 163.003,382.911 163.500,382.914 164.600 M277.856 167.284 C 277.721 167.788,277.632 168.920,277.658 169.800 C 277.697 171.120,277.759 170.980,278.013 169.000 C 278.337 166.478,278.270 165.741,277.856 167.284 M296.198 169.630 C 296.197 171.143,296.319 172.070,296.470 171.690 C 296.841 170.754,296.857 167.908,296.494 167.340 C 296.332 167.087,296.199 168.118,296.198 169.630 M335.900 183.089 C 336.615 183.178,337.785 183.178,338.500 183.089 C 339.215 183.001,338.630 182.928,337.200 182.928 C 335.770 182.928,335.185 183.001,335.900 183.089 M331.200 183.618 C 330.762 183.915,330.924 183.952,331.800 183.756 C 333.271 183.427,333.590 183.198,332.567 183.206 C 332.145 183.209,331.530 183.395,331.200 183.618 M340.833 183.344 C 340.925 183.423,341.540 183.608,342.200 183.756 C 343.076 183.952,343.238 183.915,342.800 183.618 C 342.260 183.253,340.432 182.998,340.833 183.344 M60.800 184.418 C 60.362 184.715,60.524 184.752,61.400 184.556 C 62.871 184.227,63.190 183.998,62.167 184.006 C 61.745 184.009,61.130 184.195,60.800 184.418 M68.433 184.144 C 68.525 184.223,69.140 184.408,69.800 184.556 C 70.676 184.752,70.838 184.715,70.400 184.418 C 69.860 184.053,68.032 183.798,68.433 184.144 M278.667 184.267 C 278.148 184.785,278.357 234.197,278.880 234.720 C 279.387 235.227,293.714 235.438,294.967 234.957 C 295.649 234.696,295.977 184.680,295.300 184.262 C 295.135 184.160,295.000 195.444,295.000 209.338 L 295.000 234.600 287.000 234.600 L 279.000 234.600 278.897 209.625 C 278.816 189.911,278.900 184.584,279.297 184.332 C 279.593 184.144,279.622 184.010,279.367 184.006 C 279.128 184.003,278.813 184.120,278.667 184.267 M305.067 184.267 C 304.548 184.785,304.757 234.197,305.280 234.720 C 305.823 235.263,320.646 235.413,321.478 234.884 C 321.833 234.658,321.988 230.448,322.078 218.590 C 322.170 206.484,322.325 202.381,322.714 201.700 C 322.997 201.205,323.138 200.800,323.028 200.800 C 321.989 200.800,321.792 203.265,321.600 218.600 L 321.400 234.600 313.400 234.600 L 305.400 234.600 305.297 209.625 C 305.216 189.911,305.300 184.584,305.697 184.332 C 305.993 184.144,306.022 184.010,305.767 184.006 C 305.528 184.003,305.213 184.120,305.067 184.267 M321.530 187.237 C 321.686 191.012,321.529 190.967,324.578 188.100 C 325.923 186.835,327.378 185.572,327.812 185.294 C 328.245 185.016,328.060 185.047,327.400 185.362 C 326.740 185.678,325.398 186.760,324.417 187.768 C 322.118 190.130,322.000 190.093,322.000 187.024 C 322.000 185.607,321.865 184.363,321.700 184.260 C 321.535 184.158,321.459 185.497,321.530 187.237 M346.000 184.952 C 346.000 185.046,346.795 185.590,347.767 186.159 C 348.738 186.729,350.290 188.051,351.216 189.097 C 352.141 190.144,352.519 190.436,352.055 189.747 C 350.754 187.812,346.000 184.048,346.000 184.952 M192.100 186.687 C 192.705 186.778,193.695 186.778,194.300 186.687 C 194.905 186.595,194.410 186.520,193.200 186.520 C 191.990 186.520,191.495 186.595,192.100 186.687 M382.924 188.600 C 382.926 189.920,383.001 190.412,383.090 189.693 C 383.179 188.974,383.177 187.894,383.086 187.293 C 382.995 186.692,382.922 187.280,382.924 188.600 M53.775 188.500 L 52.600 189.800 53.900 188.625 C 54.615 187.979,55.200 187.394,55.200 187.325 C 55.200 187.016,54.870 187.288,53.775 188.500 M63.800 187.566 C 63.037 187.739,63.764 187.838,65.800 187.838 C 67.836 187.838,68.563 187.739,67.800 187.566 C 67.140 187.417,66.240 187.295,65.800 187.295 C 65.360 187.295,64.460 187.417,63.800 187.566 M75.983 187.714 C 76.454 188.339,76.380 188.577,75.391 189.609 L 74.261 190.789 72.904 189.754 C 72.158 189.185,71.484 188.782,71.407 188.860 C 71.330 188.937,71.944 189.487,72.772 190.082 L 74.278 191.164 75.621 189.778 C 76.932 188.426,76.946 188.376,76.204 187.696 C 75.480 187.033,75.469 187.034,75.983 187.714 M56.975 190.900 L 55.800 192.200 57.100 191.025 C 57.815 190.379,58.400 189.794,58.400 189.725 C 58.400 189.416,58.070 189.688,56.975 190.900 M89.515 191.528 C 89.138 191.678,90.436 191.800,92.400 191.800 C 94.364 191.800,95.662 191.678,95.285 191.528 C 94.908 191.379,93.610 191.256,92.400 191.256 C 91.190 191.256,89.892 191.379,89.515 191.528 M110.645 191.528 C 110.533 191.708,110.974 191.777,111.625 191.682 C 113.061 191.471,114.000 192.170,114.000 193.449 C 114.000 194.650,114.845 194.673,115.838 193.500 C 116.599 192.601,116.599 192.601,115.769 193.300 C 114.701 194.198,114.400 194.183,114.400 193.229 C 114.400 191.707,111.379 190.339,110.645 191.528 M119.515 191.528 C 119.138 191.678,120.436 191.800,122.400 191.800 C 124.364 191.800,125.662 191.678,125.285 191.528 C 124.908 191.379,123.610 191.256,122.400 191.256 C 121.190 191.256,119.892 191.379,119.515 191.528 M145.915 191.528 C 145.538 191.678,146.836 191.800,148.800 191.800 C 150.764 191.800,152.062 191.678,151.685 191.528 C 151.308 191.379,150.010 191.256,148.800 191.256 C 147.590 191.256,146.292 191.379,145.915 191.528 M172.715 191.528 C 172.338 191.678,173.726 191.800,175.800 191.800 C 177.874 191.800,179.262 191.678,178.885 191.528 C 178.508 191.379,177.120 191.256,175.800 191.256 C 174.480 191.256,173.092 191.379,172.715 191.528 M187.700 191.465 C 187.170 191.679,186.983 194.800,187.500 194.800 C 187.665 194.800,187.800 194.125,187.800 193.300 C 187.800 191.824,187.829 191.796,189.600 191.560 L 191.400 191.320 189.800 191.292 C 188.920 191.276,187.975 191.354,187.700 191.465 M196.000 191.447 C 198.349 191.745,201.511 191.777,201.339 191.500 C 201.237 191.335,199.768 191.227,198.076 191.260 C 196.384 191.293,195.450 191.377,196.000 191.447 M231.091 191.489 C 231.801 191.577,233.061 191.579,233.891 191.492 C 234.721 191.405,234.140 191.333,232.600 191.331 C 231.060 191.329,230.381 191.400,231.091 191.489 M253.115 191.528 C 252.738 191.678,254.036 191.800,256.000 191.800 C 257.964 191.800,259.262 191.678,258.885 191.528 C 258.508 191.379,257.210 191.256,256.000 191.256 C 254.790 191.256,253.492 191.379,253.115 191.528 M85.526 193.161 C 84.519 193.799,83.548 194.564,83.368 194.861 C 83.188 195.157,83.661 194.932,84.420 194.361 C 85.179 193.790,86.340 193.032,87.000 192.677 C 87.660 192.322,88.010 192.025,87.778 192.016 C 87.546 192.007,86.533 192.522,85.526 193.161 M143.000 192.753 C 142.340 193.165,141.171 194.199,140.402 195.051 L 139.004 196.600 140.802 194.945 C 141.791 194.035,143.140 193.008,143.800 192.661 C 144.460 192.315,144.820 192.025,144.600 192.018 C 144.380 192.010,143.660 192.340,143.000 192.753 M226.200 192.737 C 225.540 193.140,224.735 193.815,224.412 194.235 C 223.927 194.866,223.997 194.851,224.812 194.149 C 225.355 193.680,226.340 193.013,227.000 192.665 C 227.660 192.317,228.020 192.025,227.800 192.018 C 227.580 192.010,226.860 192.333,226.200 192.737 M250.200 192.753 C 249.540 193.165,248.371 194.199,247.602 195.051 L 246.204 196.600 248.002 194.945 C 248.991 194.035,250.340 193.008,251.000 192.661 C 251.660 192.315,252.020 192.025,251.800 192.018 C 251.580 192.010,250.860 192.340,250.200 192.753 M110.084 203.076 C 110.038 209.058,110.135 214.037,110.300 214.139 C 110.465 214.241,110.554 211.057,110.498 207.062 C 110.306 193.504,110.168 192.169,110.084 203.076 M98.400 192.878 C 100.958 195.257,102.472 196.433,101.200 195.053 C 100.430 194.218,99.440 193.345,99.000 193.113 C 98.560 192.881,98.290 192.775,98.400 192.878 M128.000 192.925 C 128.000 192.994,128.585 193.579,129.300 194.225 L 130.600 195.400 129.425 194.100 C 128.330 192.888,128.000 192.616,128.000 192.925 M166.926 194.900 C 166.250 195.615,165.491 196.650,165.240 197.200 C 164.850 198.054,164.858 198.088,165.292 197.432 C 165.571 197.009,166.406 195.974,167.147 195.132 C 168.787 193.266,168.630 193.100,166.926 194.900 M49.800 195.600 C 49.648 196.291,49.607 196.941,49.709 197.042 C 49.811 197.144,50.009 196.653,50.150 195.950 C 50.483 194.283,50.160 193.960,49.800 195.600 M147.115 194.728 C 146.739 194.878,147.639 195.011,149.115 195.024 C 150.812 195.040,151.432 194.944,150.800 194.764 C 149.514 194.398,147.984 194.383,147.115 194.728 M198.200 194.800 L 195.000 195.053 198.076 195.127 C 199.780 195.167,201.263 195.022,201.400 194.800 C 201.536 194.580,201.592 194.433,201.524 194.473 C 201.456 194.514,199.960 194.661,198.200 194.800 M230.400 194.820 C 229.726 195.049,230.051 195.084,231.400 194.928 C 232.500 194.801,233.475 194.631,233.567 194.549 C 233.882 194.268,231.399 194.480,230.400 194.820 M254.315 194.728 C 253.939 194.878,254.839 195.011,256.315 195.024 C 258.012 195.040,258.632 194.944,258.000 194.764 C 256.714 194.398,255.184 194.383,254.315 194.728 M91.107 195.090 C 91.826 195.179,92.906 195.177,93.507 195.086 C 94.108 194.995,93.520 194.922,92.200 194.924 C 90.880 194.926,90.388 195.001,91.107 195.090 M120.505 195.087 C 121.114 195.179,122.014 195.177,122.505 195.082 C 122.997 194.987,122.500 194.911,121.400 194.914 C 120.300 194.917,119.897 194.995,120.505 195.087 M174.707 195.090 C 175.426 195.179,176.506 195.177,177.107 195.086 C 177.708 194.995,177.120 194.922,175.800 194.924 C 174.480 194.926,173.988 195.001,174.707 195.090 M189.105 195.083 C 189.602 195.179,190.322 195.175,190.705 195.075 C 191.087 194.975,190.680 194.896,189.800 194.901 C 188.920 194.905,188.607 194.987,189.105 195.083 M87.733 196.092 C 87.043 196.583,86.258 197.348,85.990 197.792 C 85.692 198.288,86.024 198.118,86.852 197.353 C 87.593 196.667,88.560 195.907,89.000 195.665 C 89.440 195.423,89.617 195.219,89.394 195.212 C 89.171 195.205,88.424 195.601,87.733 196.092 M179.354 195.694 C 179.768 195.972,180.668 196.644,181.354 197.186 C 182.557 198.138,182.573 198.140,181.801 197.245 C 181.361 196.735,180.461 196.064,179.801 195.753 C 179.092 195.420,178.909 195.396,179.354 195.694 M97.846 197.181 C 98.312 197.742,98.892 198.560,99.134 199.000 C 99.377 199.440,99.581 199.572,99.588 199.294 C 99.595 199.016,99.015 198.198,98.300 197.476 C 97.585 196.754,97.381 196.621,97.846 197.181 M143.320 196.900 C 142.436 197.870,141.590 199.347,141.616 199.874 C 141.625 200.053,141.917 199.660,142.265 199.000 C 142.613 198.340,143.267 197.395,143.718 196.900 C 144.170 196.405,144.449 196.000,144.339 196.000 C 144.229 196.000,143.771 196.405,143.320 196.900 M170.129 196.900 C 169.684 197.395,169.176 198.070,169.001 198.400 C 168.663 199.037,168.755 198.950,170.376 197.100 C 170.906 196.495,171.249 196.000,171.139 196.000 C 171.029 196.000,170.575 196.405,170.129 196.900 M183.656 196.834 C 183.136 197.255,182.866 197.594,183.056 197.587 C 183.544 197.569,184.976 196.443,184.771 196.239 C 184.677 196.145,184.175 196.413,183.656 196.834 M250.520 196.900 C 249.636 197.870,248.790 199.347,248.816 199.874 C 248.825 200.053,249.117 199.660,249.465 199.000 C 249.813 198.340,250.467 197.395,250.918 196.900 C 251.370 196.405,251.649 196.000,251.539 196.000 C 251.429 196.000,250.971 196.405,250.520 196.900 M328.000 196.406 C 327.578 196.682,327.815 196.723,328.800 196.542 C 330.525 196.225,330.851 195.998,329.567 196.006 C 329.035 196.009,328.330 196.189,328.000 196.406 M331.633 196.143 C 331.725 196.221,332.430 196.401,333.200 196.542 C 334.185 196.723,334.422 196.682,334.000 196.406 C 333.458 196.050,331.237 195.803,331.633 196.143 M53.660 199.200 C 53.658 200.630,53.800 202.160,53.976 202.600 C 54.157 203.054,54.217 202.101,54.115 200.400 C 53.882 196.493,53.664 195.919,53.660 199.200 M335.276 197.219 C 335.648 197.436,336.503 198.281,337.176 199.098 C 337.849 199.914,338.400 200.452,338.400 200.292 C 338.400 199.787,335.527 196.799,335.053 196.812 C 334.804 196.819,334.904 197.002,335.276 197.219 M155.055 198.200 C 155.980 199.779,156.000 199.803,156.000 199.311 C 156.000 199.079,155.629 198.464,155.176 197.944 L 154.353 197.000 155.055 198.200 M262.255 198.200 C 263.180 199.779,263.200 199.803,263.200 199.311 C 263.200 199.079,262.829 198.464,262.376 197.944 L 261.553 197.000 262.255 198.200 M355.268 197.600 C 355.288 198.639,355.918 200.346,355.932 199.400 C 355.938 198.960,355.789 198.240,355.600 197.800 C 355.389 197.310,355.261 197.232,355.268 197.600 M131.531 205.678 C 131.634 212.017,131.549 213.794,131.131 214.088 C 130.711 214.383,130.726 214.427,131.200 214.297 C 131.869 214.115,132.318 200.134,131.709 198.479 C 131.539 198.018,131.459 201.258,131.531 205.678 M127.528 206.133 C 127.599 210.350,127.779 213.927,127.928 214.081 C 128.078 214.236,128.110 210.876,128.000 206.614 C 127.890 202.352,127.710 198.775,127.600 198.665 C 127.490 198.555,127.458 201.915,127.528 206.133 M227.944 199.976 C 228.464 200.429,229.079 200.800,229.311 200.800 C 229.803 200.800,229.779 200.780,228.200 199.855 L 227.000 199.153 227.944 199.976 M382.944 203.200 C 382.944 205.290,383.012 206.145,383.094 205.100 C 383.176 204.055,383.176 202.345,383.094 201.300 C 383.012 200.255,382.944 201.110,382.944 203.200 M156.000 200.551 C 156.000 201.175,155.373 201.225,148.800 201.117 C 144.839 201.053,141.599 201.135,141.600 201.300 C 141.601 201.956,156.008 201.644,156.262 200.983 C 156.392 200.643,156.387 200.253,156.249 200.116 C 156.112 199.979,156.000 200.175,156.000 200.551 M263.200 200.551 C 263.200 201.175,262.573 201.225,256.000 201.117 C 252.039 201.053,248.799 201.135,248.800 201.300 C 248.801 201.956,263.208 201.644,263.462 200.983 C 263.592 200.643,263.587 200.253,263.449 200.116 C 263.312 199.979,263.200 200.175,263.200 200.551 M80.520 202.800 C 80.520 204.010,80.595 204.505,80.687 203.900 C 80.778 203.295,80.778 202.305,80.687 201.700 C 80.595 201.095,80.520 201.590,80.520 202.800 M218.334 202.432 L 218.488 204.043 212.863 203.922 C 209.769 203.855,207.378 203.940,207.551 204.112 C 207.723 204.284,210.280 204.374,213.232 204.312 L 218.600 204.200 218.729 202.849 C 218.800 202.106,218.706 201.346,218.520 201.160 C 218.333 200.973,218.250 201.546,218.334 202.432 M230.800 201.200 C 232.168 201.638,233.219 201.638,232.200 201.200 C 231.760 201.011,231.040 200.862,230.600 200.868 C 229.957 200.877,229.996 200.943,230.800 201.200 M84.514 203.000 C 84.517 204.100,84.595 204.503,84.687 203.895 C 84.779 203.286,84.777 202.386,84.682 201.895 C 84.587 201.403,84.511 201.900,84.514 203.000 M114.089 207.467 C 114.024 212.197,113.866 213.988,113.500 214.135 C 113.108 214.293,113.111 214.344,113.513 214.368 C 114.346 214.420,114.428 213.673,114.300 207.183 L 114.178 201.000 114.089 207.467 M234.800 202.000 C 236.168 202.438,237.219 202.438,236.200 202.000 C 235.760 201.811,235.040 201.662,234.600 201.668 C 233.957 201.677,233.996 201.743,234.800 202.000 M159.908 203.110 C 159.676 203.997,159.642 204.000,150.637 204.000 C 145.667 204.000,141.600 204.135,141.600 204.300 C 141.599 204.465,145.633 204.549,150.563 204.486 C 159.757 204.368,160.794 204.181,160.308 202.724 C 160.216 202.447,160.036 202.621,159.908 203.110 M238.200 203.066 C 238.860 203.415,239.757 203.993,240.193 204.350 C 240.942 204.964,240.955 204.960,240.422 204.274 C 239.857 203.546,237.920 202.386,237.320 202.416 C 237.144 202.425,237.540 202.717,238.200 203.066 M267.108 203.110 C 266.876 203.997,266.842 204.000,257.837 204.000 C 252.867 204.000,248.800 204.135,248.800 204.300 C 248.799 204.465,252.833 204.549,257.763 204.486 C 266.957 204.368,267.994 204.181,267.508 202.724 C 267.416 202.447,267.236 202.621,267.108 203.110 M356.114 204.200 C 356.117 205.300,356.195 205.703,356.287 205.095 C 356.379 204.486,356.377 203.586,356.282 203.095 C 356.187 202.603,356.111 203.100,356.114 204.200 M54.400 203.833 C 54.400 204.781,57.589 208.553,59.000 209.274 C 59.440 209.499,59.099 209.090,58.243 208.365 C 57.386 207.640,56.171 206.237,55.543 205.245 C 54.914 204.254,54.400 203.619,54.400 203.833 M229.400 204.400 C 229.840 204.589,230.560 204.738,231.000 204.732 C 231.643 204.723,231.604 204.657,230.800 204.400 C 229.432 203.962,228.381 203.962,229.400 204.400 M339.516 219.333 C 339.581 227.510,339.711 234.429,339.807 234.708 C 340.086 235.521,356.073 235.223,356.297 234.400 C 356.421 233.947,356.373 233.924,356.101 234.309 C 355.827 234.698,353.906 234.792,347.971 234.709 L 340.200 234.600 340.000 219.733 C 339.890 211.556,339.710 204.776,339.600 204.666 C 339.490 204.556,339.452 211.156,339.516 219.333 M232.833 204.944 C 232.925 205.023,233.540 205.208,234.200 205.356 C 235.076 205.552,235.238 205.515,234.800 205.218 C 234.260 204.853,232.432 204.598,232.833 204.944 M241.000 207.800 C 241.000 209.188,241.132 210.116,241.294 209.862 C 241.456 209.608,241.588 208.680,241.588 207.800 C 241.588 206.920,241.456 205.992,241.294 205.738 C 241.132 205.484,241.000 206.412,241.000 207.800 M141.601 205.840 C 141.600 206.364,143.892 209.600,144.265 209.600 C 144.407 209.600,144.246 209.285,143.906 208.900 C 143.565 208.515,142.908 207.570,142.445 206.800 C 141.982 206.030,141.602 205.598,141.601 205.840 M248.801 205.840 C 248.800 206.364,251.092 209.600,251.465 209.600 C 251.607 209.600,251.446 209.285,251.106 208.900 C 250.765 208.515,250.108 207.570,249.645 206.800 C 249.182 206.030,248.802 205.598,248.801 205.840 M80.832 206.320 C 80.796 206.898,81.907 209.200,82.221 209.200 C 82.331 209.200,82.171 208.705,81.865 208.100 C 81.560 207.495,81.209 206.730,81.086 206.400 C 80.936 205.997,80.853 205.971,80.832 206.320 M51.200 206.601 C 51.200 207.684,56.340 212.800,57.428 212.800 C 57.621 212.800,57.333 212.502,56.789 212.139 C 55.188 211.068,53.577 209.508,52.348 207.840 C 51.717 206.982,51.200 206.424,51.200 206.601 M97.999 208.500 C 97.410 209.304,97.313 209.584,97.745 209.233 C 98.401 208.700,99.393 207.200,99.089 207.200 C 99.013 207.200,98.522 207.785,97.999 208.500 M73.149 208.264 C 72.647 208.872,72.676 208.881,73.497 208.370 C 74.312 207.862,74.491 207.910,75.477 208.895 L 76.560 209.978 75.591 211.089 L 74.623 212.200 75.794 211.108 L 76.965 210.016 75.808 208.808 C 74.490 207.433,73.931 207.319,73.149 208.264 M86.401 208.537 C 86.951 209.162,87.760 209.859,88.200 210.086 C 89.042 210.520,89.018 210.493,86.801 208.597 L 85.403 207.400 86.401 208.537 M138.400 207.891 C 138.400 208.597,140.897 211.658,142.000 212.303 C 142.794 212.767,142.762 212.699,141.844 211.970 C 141.209 211.465,140.174 210.240,139.544 209.248 C 138.915 208.255,138.400 207.645,138.400 207.891 M245.600 207.891 C 245.600 208.597,248.097 211.658,249.200 212.303 C 249.994 212.767,249.962 212.699,249.044 211.970 C 248.409 211.465,247.374 210.240,246.744 209.248 C 246.115 208.255,245.600 207.645,245.600 207.891 M102.231 209.141 C 101.677 210.212,99.886 211.958,98.162 213.108 C 97.513 213.541,97.548 213.549,98.400 213.160 C 100.186 212.345,104.077 208.000,103.021 208.000 C 102.911 208.000,102.555 208.513,102.231 209.141 M182.000 208.286 C 182.330 208.409,183.095 208.760,183.700 209.065 C 184.305 209.371,184.800 209.531,184.800 209.421 C 184.800 209.107,182.498 207.996,181.920 208.032 C 181.571 208.053,181.597 208.136,182.000 208.286 M155.549 209.100 C 155.044 209.744,155.060 209.753,155.747 209.212 C 156.427 208.677,156.585 208.731,157.491 209.812 C 158.039 210.465,158.351 210.730,158.183 210.400 C 157.744 209.535,156.724 208.400,156.387 208.400 C 156.228 208.400,155.851 208.715,155.549 209.100 M191.206 209.033 C 191.209 209.455,191.395 210.070,191.618 210.400 C 191.915 210.838,191.952 210.676,191.756 209.800 C 191.427 208.329,191.198 208.010,191.206 209.033 M195.201 208.646 C 195.199 209.318,196.791 211.205,197.329 211.168 C 197.628 211.148,197.606 211.059,197.267 210.924 C 196.974 210.807,196.390 210.146,195.969 209.456 C 195.548 208.765,195.202 208.401,195.201 208.646 M262.749 209.100 C 262.244 209.744,262.260 209.753,262.947 209.212 C 263.627 208.677,263.785 208.731,264.691 209.812 C 265.239 210.465,265.551 210.730,265.383 210.400 C 264.944 209.535,263.924 208.400,263.587 208.400 C 263.428 208.400,263.051 208.715,262.749 209.100 M223.196 210.100 C 222.228 211.686,222.225 211.765,223.100 212.451 C 223.728 212.943,223.746 212.931,223.275 212.329 C 222.584 211.446,223.715 209.005,224.648 209.363 C 224.982 209.491,225.135 209.418,224.997 209.195 C 224.563 208.492,224.005 208.772,223.196 210.100 M62.800 210.803 C 63.789 211.117,67.888 211.334,67.567 211.056 C 67.475 210.977,66.140 210.816,64.600 210.699 C 62.973 210.575,62.219 210.619,62.800 210.803 M89.600 210.782 C 89.930 211.005,90.545 211.191,90.967 211.194 C 91.990 211.202,91.671 210.973,90.200 210.644 C 89.324 210.448,89.162 210.485,89.600 210.782 M93.800 210.800 C 93.296 211.017,93.222 211.144,93.600 211.144 C 93.930 211.144,94.560 210.989,95.000 210.800 C 95.504 210.583,95.578 210.456,95.200 210.456 C 94.870 210.456,94.240 210.611,93.800 210.800 M151.400 210.800 C 150.293 211.082,150.277 211.109,151.200 211.147 C 151.750 211.169,152.470 211.013,152.800 210.800 C 153.481 210.360,153.129 210.360,151.400 210.800 M173.000 210.800 C 173.440 210.989,174.160 211.138,174.600 211.132 C 175.243 211.123,175.204 211.057,174.400 210.800 C 173.032 210.362,171.981 210.362,173.000 210.800 M177.200 210.800 C 176.396 211.057,176.357 211.123,177.000 211.132 C 177.440 211.138,178.160 210.989,178.600 210.800 C 179.619 210.362,178.568 210.362,177.200 210.800 M183.375 211.700 L 182.200 213.000 183.500 211.825 C 184.712 210.730,184.984 210.400,184.675 210.400 C 184.606 210.400,184.021 210.985,183.375 211.700 M228.200 210.781 C 228.968 211.129,231.110 211.356,230.767 211.053 C 230.675 210.972,229.880 210.796,229.000 210.662 C 227.885 210.493,227.642 210.529,228.200 210.781 M258.600 210.800 C 257.493 211.082,257.477 211.109,258.400 211.147 C 258.950 211.169,259.670 211.013,260.000 210.800 C 260.681 210.360,260.329 210.360,258.600 210.800 M156.818 212.250 C 154.936 213.586,154.771 213.818,156.229 213.077 C 156.905 212.734,157.692 212.171,157.978 211.826 C 158.660 211.005,158.477 211.072,156.818 212.250 M192.000 211.476 C 192.000 212.263,195.392 214.741,195.847 214.286 C 195.945 214.188,195.474 213.879,194.799 213.600 C 194.125 213.320,193.219 212.642,192.786 212.092 C 192.354 211.542,192.000 211.265,192.000 211.476 M202.631 212.101 C 202.856 213.069,202.725 213.272,201.544 213.785 C 200.805 214.106,200.417 214.376,200.681 214.384 C 202.522 214.444,203.674 212.918,202.782 211.600 C 202.481 211.155,202.442 211.284,202.631 212.101 M264.018 212.250 C 262.136 213.586,261.971 213.818,263.429 213.077 C 264.105 212.734,264.892 212.171,265.178 211.826 C 265.860 211.005,265.677 211.072,264.018 212.250 M72.800 212.800 C 72.030 213.222,71.544 213.574,71.720 213.583 C 72.144 213.605,74.400 212.432,74.400 212.190 C 74.400 211.928,74.377 211.937,72.800 212.800 M60.200 214.000 C 60.640 214.189,61.270 214.344,61.600 214.344 C 61.978 214.344,61.904 214.217,61.400 214.000 C 60.960 213.811,60.330 213.656,60.000 213.656 C 59.622 213.656,59.696 213.783,60.200 214.000 M226.600 214.000 C 227.040 214.189,227.760 214.338,228.200 214.332 C 228.843 214.323,228.804 214.257,228.000 214.000 C 226.632 213.562,225.581 213.562,226.600 214.000 M64.500 214.687 C 65.105 214.778,66.095 214.778,66.700 214.687 C 67.305 214.595,66.810 214.520,65.600 214.520 C 64.390 214.520,63.895 214.595,64.500 214.687 M382.931 226.200 C 382.933 227.740,383.005 228.321,383.092 227.491 C 383.179 226.661,383.177 225.401,383.089 224.691 C 383.000 223.981,382.929 224.660,382.931 226.200 M382.800 248.933 C 382.800 256.740,382.924 259.600,383.263 259.600 C 383.718 259.600,383.450 238.917,382.989 238.456 C 382.885 238.352,382.800 243.067,382.800 248.933 M16.400 258.776 C 16.400 260.453,17.022 260.621,17.133 258.974 C 17.183 258.218,17.039 257.600,16.813 257.600 C 16.586 257.600,16.400 258.129,16.400 258.776 M23.600 266.400 C 23.600 266.620,24.140 266.800,24.800 266.800 C 25.460 266.800,26.000 266.620,26.000 266.400 C 26.000 266.180,25.460 266.000,24.800 266.000 C 24.140 266.000,23.600 266.180,23.600 266.400 M77.900 266.300 C 85.435 266.361,97.765 266.361,105.300 266.300 C 112.835 266.239,106.670 266.189,91.600 266.189 C 76.530 266.189,70.365 266.239,77.900 266.300 M158.300 266.300 C 174.415 266.358,200.785 266.358,216.900 266.300 C 233.015 266.242,219.830 266.195,187.600 266.195 C 155.370 266.195,142.185 266.242,158.300 266.300 M261.900 266.289 C 262.615 266.378,263.785 266.378,264.500 266.289 C 265.215 266.201,264.630 266.128,263.200 266.128 C 261.770 266.128,261.185 266.201,261.900 266.289 M373.800 266.400 C 373.936 266.620,374.577 266.800,375.224 266.800 C 375.871 266.800,376.400 266.620,376.400 266.400 C 376.400 266.180,375.759 266.000,374.976 266.000 C 374.129 266.000,373.653 266.162,373.800 266.400 " stroke="none" fill="#84bcdc" fill-rule="evenodd"></path>
    <path id="path3" d="M268.000 133.599 C 268.000 133.864,226.700 134.033,145.500 134.100 C 74.087 134.159,96.648 134.206,199.600 134.213 C 296.730 134.219,373.627 134.168,370.483 134.101 C 366.913 134.024,364.857 133.832,365.007 133.589 C 365.162 133.338,348.014 133.200,316.624 133.200 C 284.527 133.200,268.000 133.336,268.000 133.599 M21.647 134.655 C 21.169 135.195,21.191 135.260,21.814 135.139 C 22.210 135.063,22.609 134.775,22.700 134.500 C 22.930 133.810,22.316 133.900,21.647 134.655 M377.300 134.500 C 377.391 134.775,377.799 135.064,378.205 135.143 C 378.883 135.275,378.891 135.234,378.300 134.643 C 377.532 133.875,377.070 133.808,377.300 134.500 M19.465 136.546 L 18.330 138.200 19.595 136.890 C 20.291 136.169,20.801 135.425,20.730 135.236 C 20.658 135.047,20.089 135.637,19.465 136.546 M379.200 135.111 C 379.200 135.297,379.525 135.798,379.922 136.225 C 380.320 136.651,380.903 137.585,381.220 138.300 C 381.536 139.015,382.066 139.586,382.398 139.568 C 382.808 139.547,382.841 139.473,382.500 139.335 C 382.225 139.224,382.000 138.782,382.000 138.353 C 382.000 137.924,381.370 136.943,380.600 136.173 C 379.830 135.403,379.200 134.925,379.200 135.111 M17.395 199.600 C 17.395 232.490,17.442 245.945,17.500 229.500 C 17.558 213.055,17.558 186.145,17.500 169.700 C 17.442 153.255,17.395 166.710,17.395 199.600 M382.595 200.000 C 382.595 232.670,382.642 246.035,382.700 229.700 C 382.758 213.365,382.758 186.635,382.700 170.300 C 382.642 153.965,382.595 167.330,382.595 200.000 M286.100 159.887 C 286.705 159.978,287.695 159.978,288.300 159.887 C 288.905 159.795,288.410 159.720,287.200 159.720 C 285.990 159.720,285.495 159.795,286.100 159.887 M281.896 161.180 C 280.030 162.363,278.350 164.530,277.849 166.400 C 277.701 166.950,277.970 166.623,278.447 165.674 C 279.556 163.465,281.354 161.674,283.391 160.748 C 284.276 160.346,284.720 160.014,284.378 160.009 C 284.036 160.004,282.919 160.531,281.896 161.180 M291.109 160.839 C 292.048 161.311,293.563 162.530,294.474 163.548 C 296.120 165.389,296.187 165.210,294.644 163.091 C 293.777 161.900,291.885 160.641,290.349 160.233 C 289.827 160.094,290.169 160.367,291.109 160.839 M277.293 169.600 C 277.293 170.370,277.375 170.685,277.476 170.300 C 277.576 169.915,277.576 169.285,277.476 168.900 C 277.375 168.515,277.293 168.830,277.293 169.600 M295.895 173.196 C 295.548 174.078,295.349 174.800,295.453 174.800 C 295.723 174.800,296.878 171.945,296.686 171.752 C 296.597 171.664,296.241 172.313,295.895 173.196 M279.200 175.325 C 279.200 175.394,279.785 175.979,280.500 176.625 L 281.800 177.800 280.625 176.500 C 279.530 175.288,279.200 175.016,279.200 175.325 M293.775 176.500 L 292.600 177.800 293.900 176.625 C 294.615 175.979,295.200 175.394,295.200 175.325 C 295.200 175.016,294.870 175.288,293.775 176.500 M289.000 178.800 C 288.496 179.017,288.422 179.144,288.800 179.144 C 289.130 179.144,289.760 178.989,290.200 178.800 C 290.704 178.583,290.778 178.456,290.400 178.456 C 290.070 178.456,289.440 178.611,289.000 178.800 M333.023 182.747 C 332.375 182.886,334.165 183.000,337.000 183.000 C 339.835 183.000,341.625 182.886,340.977 182.747 C 340.330 182.608,338.540 182.495,337.000 182.495 C 335.460 182.495,333.670 182.608,333.023 182.747 M65.800 183.580 C 67.034 183.915,69.864 184.118,69.567 183.850 C 69.475 183.768,68.320 183.600,67.000 183.477 C 65.422 183.330,65.011 183.365,65.800 183.580 M329.400 183.978 C 328.520 184.395,327.980 184.736,328.200 184.738 C 328.746 184.742,331.902 183.264,331.400 183.240 C 331.180 183.230,330.280 183.562,329.400 183.978 M343.000 183.600 C 343.440 183.789,344.070 183.944,344.400 183.944 C 344.778 183.944,344.704 183.817,344.200 183.600 C 343.760 183.411,343.130 183.256,342.800 183.256 C 342.422 183.256,342.496 183.383,343.000 183.600 M62.305 183.883 C 62.802 183.979,63.522 183.975,63.905 183.875 C 64.287 183.775,63.880 183.696,63.000 183.701 C 62.120 183.705,61.807 183.787,62.305 183.883 M278.661 183.900 C 278.558 184.065,281.023 184.153,284.137 184.097 C 294.445 183.908,295.507 183.760,287.124 183.679 C 282.572 183.636,278.763 183.735,278.661 183.900 M305.061 183.900 C 304.958 184.065,307.423 184.153,310.537 184.097 C 320.845 183.908,321.907 183.760,313.524 183.679 C 308.972 183.636,305.163 183.735,305.061 183.900 M57.764 185.182 C 56.464 185.832,54.590 187.220,53.600 188.267 L 51.800 190.171 53.918 188.253 C 55.083 187.198,57.153 185.817,58.518 185.186 C 59.883 184.554,60.804 184.028,60.564 184.018 C 60.324 184.008,59.064 184.532,57.764 185.182 M295.506 209.600 C 295.448 223.680,295.535 235.200,295.700 235.200 C 295.865 235.200,296.000 223.680,296.000 209.600 C 296.000 195.520,295.913 184.000,295.806 184.000 C 295.699 184.000,295.564 195.520,295.506 209.600 M322.077 186.476 C 321.977 189.941,322.122 189.971,325.159 187.115 C 326.567 185.791,327.377 184.895,326.959 185.122 C 326.542 185.350,325.488 186.271,324.619 187.168 C 322.563 189.290,322.464 189.253,322.296 186.300 L 322.154 183.800 322.077 186.476 M75.309 186.829 C 77.118 188.321,77.137 188.564,75.558 190.040 C 74.874 190.678,74.498 191.200,74.722 191.200 C 75.177 191.200,77.200 188.922,77.200 188.411 C 77.200 188.034,74.512 185.600,74.095 185.600 C 73.942 185.600,74.489 186.153,75.309 186.829 M350.131 187.700 C 351.294 188.855,352.554 190.250,352.932 190.800 C 353.617 191.798,353.617 191.797,353.044 190.587 C 352.533 189.508,348.757 185.600,348.226 185.600 C 348.111 185.600,348.968 186.545,350.131 187.700 M192.300 186.282 C 192.795 186.378,193.605 186.378,194.100 186.282 C 194.595 186.187,194.190 186.109,193.200 186.109 C 192.210 186.109,191.805 186.187,192.300 186.282 M190.872 188.467 C 190.828 189.846,190.604 190.812,190.300 190.935 C 189.908 191.093,189.911 191.144,190.313 191.168 C 191.050 191.214,191.269 190.370,191.096 188.149 L 190.944 186.200 190.872 188.467 M195.363 188.568 C 195.390 190.312,195.558 190.980,196.000 191.099 C 196.419 191.212,196.456 191.158,196.124 190.922 C 195.862 190.735,195.575 189.596,195.487 188.391 L 195.325 186.200 195.363 188.568 M61.600 188.406 C 61.178 188.682,61.415 188.723,62.400 188.542 C 64.125 188.225,64.451 187.998,63.167 188.006 C 62.635 188.009,61.930 188.189,61.600 188.406 M67.633 188.144 C 67.725 188.223,68.340 188.408,69.000 188.556 C 69.876 188.752,70.038 188.715,69.600 188.418 C 69.060 188.053,67.232 187.798,67.633 188.144 M71.686 189.800 C 72.495 190.350,73.299 190.800,73.472 190.800 C 73.644 190.800,73.123 190.350,72.314 189.800 C 71.505 189.250,70.701 188.800,70.528 188.800 C 70.356 188.800,70.877 189.250,71.686 189.800 M91.300 191.087 C 91.905 191.178,92.895 191.178,93.500 191.087 C 94.105 190.995,93.610 190.920,92.400 190.920 C 91.190 190.920,90.695 190.995,91.300 191.087 M121.300 191.087 C 121.905 191.178,122.895 191.178,123.500 191.087 C 124.105 190.995,123.610 190.920,122.400 190.920 C 121.190 190.920,120.695 190.995,121.300 191.087 M148.105 191.087 C 148.714 191.179,149.614 191.177,150.105 191.082 C 150.597 190.987,150.100 190.911,149.000 190.914 C 147.900 190.917,147.497 190.995,148.105 191.087 M174.900 191.087 C 175.505 191.178,176.495 191.178,177.100 191.087 C 177.705 190.995,177.210 190.920,176.000 190.920 C 174.790 190.920,174.295 190.995,174.900 191.087 M231.507 191.090 C 232.226 191.179,233.306 191.177,233.907 191.086 C 234.508 190.995,233.920 190.922,232.600 190.924 C 231.280 190.926,230.788 191.001,231.507 191.090 M255.305 191.087 C 255.914 191.179,256.814 191.177,257.305 191.082 C 257.797 190.987,257.300 190.911,256.200 190.914 C 255.100 190.917,254.697 190.995,255.305 191.087 M109.867 191.467 C 109.720 191.613,109.600 196.814,109.600 203.024 C 109.600 215.634,109.405 214.855,112.533 214.737 L 114.200 214.674 112.200 214.437 L 110.200 214.200 110.093 203.249 C 110.018 195.504,110.120 192.137,110.442 191.749 C 110.894 191.205,110.380 190.953,109.867 191.467 M143.346 192.202 C 141.231 193.256,140.178 194.220,138.980 196.200 C 138.098 197.657,138.654 197.134,140.127 195.120 C 140.811 194.186,142.129 193.195,143.705 192.431 C 145.077 191.765,146.010 191.216,145.779 191.210 C 145.547 191.205,144.452 191.651,143.346 192.202 M171.400 191.600 C 170.896 191.817,170.822 191.944,171.200 191.944 C 171.530 191.944,172.160 191.789,172.600 191.600 C 173.104 191.383,173.178 191.256,172.800 191.256 C 172.470 191.256,171.840 191.411,171.400 191.600 M201.500 191.630 C 201.775 191.922,202.000 192.628,202.000 193.200 C 202.000 193.772,201.775 194.479,201.500 194.770 C 201.096 195.198,201.116 195.265,201.600 195.117 C 202.013 194.991,202.200 194.393,202.200 193.200 C 202.200 192.007,202.013 191.409,201.600 191.283 C 201.116 191.135,201.096 191.202,201.500 191.630 M227.800 191.600 C 227.296 191.817,227.222 191.944,227.600 191.944 C 227.930 191.944,228.560 191.789,229.000 191.600 C 229.504 191.383,229.578 191.256,229.200 191.256 C 228.870 191.256,228.240 191.411,227.800 191.600 M236.400 191.600 C 237.768 192.038,238.819 192.038,237.800 191.600 C 237.360 191.411,236.640 191.262,236.200 191.268 C 235.557 191.277,235.596 191.343,236.400 191.600 M250.546 192.202 C 248.431 193.256,247.378 194.220,246.180 196.200 C 245.298 197.657,245.854 197.134,247.327 195.120 C 248.011 194.186,249.329 193.195,250.905 192.431 C 252.277 191.765,253.210 191.216,252.979 191.210 C 252.747 191.205,251.652 191.651,250.546 192.202 M55.669 192.839 C 54.910 194.054,55.366 194.216,56.155 193.012 C 56.520 192.456,56.678 192.000,56.505 192.000 C 56.333 192.000,55.957 192.378,55.669 192.839 M85.589 192.661 C 84.059 193.684,82.373 195.317,81.933 196.200 C 81.714 196.640,82.032 196.391,82.639 195.646 C 83.246 194.901,84.556 193.776,85.550 193.146 C 86.543 192.516,87.181 192.000,86.967 192.000 C 86.753 192.000,86.133 192.298,85.589 192.661 M115.709 192.728 C 114.999 193.098,114.414 193.541,114.409 193.714 C 114.399 194.063,115.377 193.584,116.600 192.642 C 117.623 191.854,117.336 191.881,115.709 192.728 M128.109 192.800 C 128.669 193.240,129.257 193.600,129.417 193.600 C 129.577 193.600,129.250 193.240,128.691 192.800 C 128.131 192.360,127.543 192.000,127.383 192.000 C 127.223 192.000,127.550 192.360,128.109 192.800 M154.568 192.494 C 154.991 192.772,156.071 193.623,156.968 194.385 L 158.600 195.771 157.400 194.450 C 156.740 193.723,155.660 192.872,155.000 192.559 C 154.340 192.245,154.146 192.216,154.568 192.494 M169.000 192.743 C 167.605 193.604,165.705 195.456,165.146 196.501 C 164.932 196.900,165.712 196.276,166.879 195.113 C 168.045 193.951,169.360 192.786,169.800 192.524 C 170.240 192.261,170.510 192.037,170.400 192.025 C 170.290 192.013,169.660 192.336,169.000 192.743 M181.400 192.276 C 182.734 193.503,184.954 194.895,184.201 194.033 C 183.761 193.530,182.861 192.846,182.201 192.513 C 181.540 192.181,181.180 192.074,181.400 192.276 M186.893 193.200 C 186.893 193.970,186.975 194.285,187.076 193.900 C 187.176 193.515,187.176 192.885,187.076 192.500 C 186.975 192.115,186.893 192.430,186.893 193.200 M224.687 193.569 C 223.762 194.432,223.094 195.209,223.202 195.296 C 223.311 195.383,224.161 194.677,225.091 193.727 C 227.202 191.570,226.940 191.468,224.687 193.569 M261.768 192.494 C 262.191 192.772,263.271 193.623,264.168 194.385 L 265.800 195.771 264.600 194.450 C 263.940 193.723,262.860 192.872,262.200 192.559 C 261.540 192.245,261.346 192.216,261.768 192.494 M100.632 194.298 C 101.529 195.178,102.659 196.686,103.142 197.649 C 103.625 198.612,103.901 198.950,103.755 198.400 C 103.362 196.913,101.401 194.221,100.123 193.410 C 99.285 192.879,99.414 193.104,100.632 194.298 M240.211 194.764 C 239.747 196.228,239.016 196.480,237.266 195.780 C 236.376 195.424,235.322 195.217,234.924 195.320 C 234.320 195.476,234.341 195.515,235.051 195.554 C 235.519 195.579,236.593 195.888,237.437 196.241 C 238.967 196.880,240.800 195.865,240.800 194.378 C 240.800 193.740,240.467 193.958,240.211 194.764 M89.000 195.665 C 87.962 196.236,85.600 198.465,85.600 198.873 C 85.600 199.046,86.185 198.553,86.900 197.777 C 87.615 197.001,88.920 196.112,89.800 195.801 C 90.680 195.490,91.040 195.233,90.600 195.230 C 90.160 195.227,89.440 195.423,89.000 195.665 M118.908 195.525 C 118.638 195.696,119.555 195.764,120.946 195.676 C 123.996 195.482,125.588 196.167,126.531 198.079 C 126.889 198.806,127.186 199.169,127.191 198.886 C 127.236 196.359,121.353 193.971,118.908 195.525 M144.983 195.945 C 143.831 196.648,142.392 198.402,142.407 199.086 C 142.410 199.259,142.779 198.830,143.225 198.133 C 143.672 197.435,144.794 196.491,145.719 196.033 C 146.643 195.575,147.130 195.201,146.800 195.202 C 146.470 195.202,145.652 195.537,144.983 195.945 M151.799 195.830 C 153.841 196.895,155.600 199.001,155.600 200.380 C 155.600 201.203,142.492 200.928,142.276 200.100 C 142.138 199.573,142.081 199.623,142.046 200.300 L 142.000 201.200 149.000 201.200 C 155.401 201.200,156.000 201.140,155.999 200.500 C 155.995 198.858,152.652 195.196,151.162 195.202 C 150.853 195.204,151.140 195.486,151.799 195.830 M172.300 195.829 C 171.695 196.157,171.200 196.516,171.200 196.627 C 171.200 196.738,171.594 196.617,172.077 196.359 C 172.559 196.101,173.414 195.750,173.977 195.579 C 174.777 195.336,174.826 195.265,174.200 195.250 C 173.760 195.240,172.905 195.501,172.300 195.829 M176.833 195.344 C 176.925 195.423,177.540 195.608,178.200 195.756 C 179.076 195.952,179.238 195.915,178.800 195.618 C 178.260 195.253,176.432 194.998,176.833 195.344 M184.832 195.837 C 184.812 196.364,184.286 196.951,183.411 197.422 L 182.022 198.170 180.711 196.994 L 179.400 195.818 180.699 197.201 L 181.998 198.583 183.445 197.804 C 184.970 196.983,185.410 196.361,185.069 195.513 C 184.956 195.231,184.849 195.377,184.832 195.837 M190.290 195.487 C 190.636 195.733,190.817 197.885,190.905 202.818 L 191.030 209.800 191.015 202.633 C 191.002 196.610,190.904 195.440,190.400 195.303 C 189.966 195.184,189.936 195.235,190.290 195.487 M195.467 195.467 C 195.017 195.916,195.170 207.394,195.643 208.752 C 196.312 210.670,198.920 211.783,200.400 210.782 C 200.844 210.481,200.713 210.442,199.892 210.633 C 198.270 211.010,196.527 210.140,196.026 208.703 C 195.399 206.904,195.461 195.723,196.100 195.465 C 196.379 195.352,196.409 195.249,196.167 195.232 C 195.928 195.214,195.613 195.320,195.467 195.467 M252.183 195.945 C 251.031 196.648,249.592 198.402,249.607 199.086 C 249.610 199.259,249.979 198.830,250.425 198.133 C 250.872 197.435,251.994 196.491,252.919 196.033 C 253.843 195.575,254.330 195.201,254.000 195.202 C 253.670 195.202,252.852 195.537,252.183 195.945 M258.999 195.830 C 261.041 196.895,262.800 199.001,262.800 200.380 C 262.800 201.203,249.692 200.928,249.476 200.100 C 249.338 199.573,249.281 199.623,249.246 200.300 L 249.200 201.200 256.200 201.200 C 262.601 201.200,263.200 201.140,263.199 200.500 C 263.195 198.858,259.852 195.196,258.362 195.202 C 258.053 195.204,258.340 195.486,258.999 195.830 M355.206 196.233 C 355.209 196.655,355.395 197.270,355.618 197.600 C 355.915 198.038,355.952 197.876,355.756 197.000 C 355.427 195.529,355.198 195.210,355.206 196.233 M49.340 199.200 C 49.340 201.070,49.409 201.835,49.493 200.900 C 49.577 199.965,49.577 198.435,49.493 197.500 C 49.409 196.565,49.340 197.330,49.340 199.200 M96.033 196.100 C 96.125 196.155,96.740 196.650,97.400 197.200 L 98.600 198.200 97.630 197.100 C 97.097 196.495,96.482 196.000,96.264 196.000 C 96.045 196.000,95.942 196.045,96.033 196.100 M116.529 196.900 C 116.084 197.395,115.587 198.070,115.425 198.400 C 115.263 198.730,115.487 198.561,115.923 198.025 C 116.359 197.489,117.039 196.814,117.435 196.525 C 117.830 196.236,117.970 196.000,117.746 196.000 C 117.522 196.000,116.975 196.405,116.529 196.900 M159.078 197.395 C 159.444 198.162,159.814 198.719,159.901 198.632 C 160.084 198.449,158.870 196.000,158.596 196.000 C 158.495 196.000,158.712 196.628,159.078 197.395 M222.671 197.147 C 222.544 197.778,222.583 198.813,222.757 199.447 C 223.009 200.368,223.073 200.138,223.079 198.300 C 223.087 195.717,223.004 195.482,222.671 197.147 M227.680 196.480 C 226.213 197.947,228.232 200.842,230.680 200.782 C 231.076 200.773,230.698 200.515,229.840 200.209 C 227.676 199.438,226.857 197.703,228.080 196.480 C 228.344 196.216,228.470 196.000,228.360 196.000 C 228.250 196.000,227.944 196.216,227.680 196.480 M266.278 197.395 C 266.644 198.162,267.014 198.719,267.101 198.632 C 267.284 198.449,266.070 196.000,265.796 196.000 C 265.695 196.000,265.912 196.628,266.278 197.395 M329.907 196.690 C 330.626 196.779,331.706 196.777,332.307 196.686 C 332.908 196.595,332.320 196.522,331.000 196.524 C 329.680 196.526,329.188 196.601,329.907 196.690 M54.128 199.200 C 54.128 200.630,54.201 201.215,54.289 200.500 C 54.378 199.785,54.378 198.615,54.289 197.900 C 54.201 197.185,54.128 197.770,54.128 199.200 M169.584 198.023 C 169.105 198.696,168.779 199.313,168.861 199.394 C 168.943 199.476,169.414 198.926,169.908 198.171 C 171.023 196.471,170.771 196.356,169.584 198.023 M325.791 198.093 C 324.099 199.468,323.233 200.410,323.213 200.901 C 323.206 201.067,323.831 200.504,324.603 199.650 C 325.374 198.796,326.589 197.810,327.303 197.458 C 328.016 197.106,328.326 196.814,327.991 196.809 C 327.656 196.804,326.666 197.382,325.791 198.093 M336.251 198.403 C 336.720 198.951,337.387 199.940,337.735 200.600 C 338.083 201.260,338.375 201.656,338.384 201.480 C 338.416 200.837,337.257 198.977,336.341 198.202 L 335.400 197.406 336.251 198.403 M356.085 199.800 C 356.077 200.460,356.210 201.900,356.382 203.000 C 356.636 204.635,356.697 204.745,356.717 203.600 C 356.730 202.830,356.597 201.390,356.420 200.400 C 356.188 199.091,356.096 198.928,356.085 199.800 M80.252 200.100 C 79.946 201.241,79.999 204.712,80.340 205.924 C 80.483 206.432,80.600 205.127,80.600 203.024 C 80.600 198.822,80.598 198.808,80.252 200.100 M114.656 200.084 C 114.521 200.588,114.444 203.970,114.484 207.600 L 114.557 214.200 114.779 206.800 C 114.900 202.730,114.978 199.348,114.951 199.284 C 114.924 199.220,114.791 199.580,114.656 200.084 M85.043 200.233 C 84.703 201.117,84.750 205.303,85.106 205.862 C 85.268 206.116,85.400 204.811,85.400 202.962 C 85.400 199.310,85.399 199.304,85.043 200.233 M104.159 203.000 C 104.150 206.219,104.185 206.395,104.490 204.661 C 104.678 203.594,104.682 201.974,104.500 201.061 C 104.225 199.681,104.167 200.009,104.159 203.000 M132.166 206.800 C 132.166 210.870,132.225 212.535,132.298 210.500 C 132.371 208.465,132.371 205.135,132.298 203.100 C 132.225 201.065,132.166 202.730,132.166 206.800 M137.125 201.272 C 137.037 202.191,137.078 203.676,137.217 204.572 C 137.404 205.783,137.477 205.355,137.502 202.900 C 137.540 199.318,137.378 198.619,137.125 201.272 M160.237 201.231 C 160.585 204.562,161.060 204.400,150.957 204.400 L 142.000 204.400 142.046 205.300 C 142.081 205.977,142.138 206.027,142.276 205.500 C 142.443 204.860,143.210 204.800,151.180 204.800 C 161.341 204.800,161.173 204.860,160.478 201.493 C 160.050 199.421,160.048 199.418,160.237 201.231 M163.525 201.272 C 163.437 202.191,163.478 203.676,163.617 204.572 C 163.804 205.783,163.877 205.355,163.902 202.900 C 163.940 199.318,163.778 198.619,163.525 201.272 M244.325 201.272 C 244.237 202.191,244.278 203.676,244.417 204.572 C 244.604 205.783,244.677 205.355,244.702 202.900 C 244.740 199.318,244.578 198.619,244.325 201.272 M267.437 201.231 C 267.785 204.562,268.260 204.400,258.157 204.400 L 249.200 204.400 249.246 205.300 C 249.281 205.977,249.338 206.027,249.476 205.500 C 249.643 204.860,250.410 204.800,258.380 204.800 C 268.541 204.800,268.373 204.860,267.678 201.493 C 267.250 199.421,267.248 199.418,267.437 201.231 M127.286 207.057 C 127.190 215.178,127.069 214.853,130.133 214.737 L 131.800 214.674 129.800 214.437 L 127.800 214.200 127.586 207.000 L 127.372 199.800 127.286 207.057 M168.256 200.884 C 168.121 201.388,168.031 202.430,168.055 203.200 C 168.089 204.269,168.175 204.080,168.418 202.402 C 168.753 200.092,168.672 199.333,168.256 200.884 M206.965 200.947 C 206.845 201.260,206.804 202.210,206.873 203.058 L 207.000 204.600 213.000 204.600 L 219.000 204.600 219.000 202.600 L 219.000 200.600 213.092 200.489 C 208.279 200.399,207.143 200.484,206.965 200.947 M218.723 202.500 L 218.600 204.200 212.900 204.311 L 207.200 204.422 207.200 202.611 L 207.200 200.800 213.023 200.800 L 218.846 200.800 218.723 202.500 M223.200 201.064 C 223.200 201.282,223.695 201.897,224.300 202.430 L 225.400 203.400 224.400 202.200 C 223.850 201.540,223.355 200.925,223.300 200.833 C 223.245 200.742,223.200 200.845,223.200 201.064 M232.600 201.181 C 233.368 201.529,235.510 201.756,235.167 201.453 C 235.075 201.372,234.280 201.196,233.400 201.062 C 232.285 200.893,232.042 200.929,232.600 201.181 M99.664 202.600 C 99.623 203.480,99.496 204.650,99.383 205.200 L 99.177 206.200 99.608 205.214 C 99.844 204.672,99.971 203.502,99.889 202.614 L 99.740 201.000 99.664 202.600 M338.682 203.621 C 338.808 204.599,338.975 205.475,339.055 205.567 C 339.381 205.942,339.160 202.955,338.821 202.421 C 338.584 202.046,338.535 202.470,338.682 203.621 M239.870 203.903 C 240.711 204.763,241.476 205.406,241.568 205.332 C 241.806 205.141,239.945 203.205,239.070 202.733 C 238.668 202.517,239.028 203.043,239.870 203.903 M227.800 204.400 C 228.240 204.589,228.870 204.744,229.200 204.744 C 229.578 204.744,229.504 204.617,229.000 204.400 C 228.560 204.211,227.930 204.056,227.600 204.056 C 227.222 204.056,227.296 204.183,227.800 204.400 M230.433 204.944 C 230.525 205.024,231.410 205.196,232.400 205.327 C 233.602 205.486,233.934 205.447,233.400 205.210 C 232.636 204.872,230.086 204.643,230.433 204.944 M321.909 220.000 C 321.849 228.360,321.935 235.200,322.100 235.200 C 322.265 235.200,322.400 228.360,322.400 220.000 C 322.400 211.640,322.314 204.800,322.209 204.800 C 322.104 204.800,321.969 211.640,321.909 220.000 M57.915 207.900 C 58.884 208.835,59.880 209.600,60.128 209.600 C 60.375 209.600,60.133 209.303,59.589 208.940 C 59.045 208.576,58.049 207.811,57.377 207.240 C 56.704 206.668,56.946 206.965,57.915 207.900 M168.840 206.400 C 168.818 207.598,172.441 210.892,173.079 210.254 C 173.219 210.114,173.130 210.000,172.881 210.000 C 172.219 210.000,169.572 207.581,169.184 206.622 C 168.980 206.120,168.846 206.034,168.840 206.400 M241.714 207.800 C 241.717 208.900,241.795 209.303,241.887 208.695 C 241.979 208.086,241.977 207.186,241.882 206.695 C 241.787 206.203,241.711 206.700,241.714 207.800 M98.386 207.427 C 98.084 207.990,97.109 208.888,96.219 209.422 C 95.328 209.956,94.842 210.394,95.138 210.396 C 96.298 210.404,99.673 207.140,99.099 206.566 C 99.009 206.475,98.688 206.863,98.386 207.427 M142.409 206.633 C 142.421 207.115,143.593 208.488,144.600 209.200 C 145.040 209.511,144.770 209.055,144.000 208.187 C 143.230 207.319,142.555 206.532,142.500 206.438 C 142.445 206.344,142.404 206.432,142.409 206.633 M249.609 206.633 C 249.621 207.115,250.793 208.488,251.800 209.200 C 252.240 209.511,251.970 209.055,251.200 208.187 C 250.430 207.319,249.755 206.532,249.700 206.438 C 249.645 206.344,249.604 206.432,249.609 206.633 M164.000 206.953 C 164.000 207.382,165.190 209.600,165.421 209.600 C 165.531 209.600,165.323 209.015,164.959 208.300 C 164.217 206.840,164.000 206.536,164.000 206.953 M73.423 207.563 C 73.300 207.762,73.516 207.842,73.904 207.741 C 74.338 207.628,75.068 208.038,75.804 208.808 L 77.000 210.060 75.794 211.130 C 75.131 211.718,74.141 212.523,73.594 212.917 C 72.630 213.613,72.639 213.614,73.892 212.936 C 75.403 212.119,77.200 210.526,77.200 210.004 C 77.200 208.864,73.926 206.748,73.423 207.563 M80.818 207.431 C 80.764 208.739,83.955 212.385,86.000 213.353 C 86.330 213.509,86.150 213.316,85.600 212.924 C 84.038 211.809,82.417 209.992,81.591 208.429 C 81.175 207.643,80.827 207.194,80.818 207.431 M236.854 208.077 C 236.823 208.692,236.418 209.422,235.911 209.777 C 235.422 210.120,235.214 210.400,235.449 210.400 C 236.257 210.400,237.267 208.879,237.087 207.933 C 236.923 207.076,236.905 207.087,236.854 208.077 M181.149 208.265 C 180.847 208.630,180.060 209.260,179.400 209.663 C 178.740 210.067,178.419 210.398,178.686 210.399 C 178.953 210.399,179.763 209.886,180.486 209.259 C 181.209 208.631,182.070 208.015,182.400 207.890 C 182.903 207.700,182.895 207.658,182.349 207.632 C 181.991 207.614,181.451 207.899,181.149 208.265 M71.600 208.820 L 70.600 209.622 71.700 209.147 C 72.305 208.885,72.800 208.520,72.800 208.336 C 72.800 207.879,72.745 207.902,71.600 208.820 M87.763 209.300 C 88.427 209.905,89.247 210.399,89.585 210.398 C 89.923 210.396,89.660 210.114,89.001 209.770 C 88.341 209.426,87.521 208.932,87.179 208.672 C 86.836 208.413,87.099 208.695,87.763 209.300 M155.774 208.442 C 155.624 208.685,154.759 209.221,153.851 209.633 C 152.943 210.045,152.490 210.386,152.844 210.391 C 153.198 210.396,154.166 209.940,154.995 209.378 L 156.501 208.356 157.451 209.247 C 158.737 210.456,158.645 211.341,157.100 212.612 C 156.385 213.200,156.070 213.546,156.400 213.381 C 158.877 212.142,159.320 210.648,157.678 209.075 C 156.434 207.883,156.173 207.796,155.774 208.442 M184.198 208.925 L 185.396 209.921 184.613 210.860 L 183.830 211.800 184.782 210.922 C 185.829 209.956,185.549 209.195,183.833 208.343 C 183.352 208.104,183.507 208.350,184.198 208.925 M262.974 208.442 C 262.824 208.685,261.959 209.221,261.051 209.633 C 260.143 210.045,259.690 210.386,260.044 210.391 C 260.398 210.396,261.366 209.940,262.195 209.378 L 263.701 208.356 264.651 209.247 C 265.937 210.456,265.845 211.341,264.300 212.612 C 263.585 213.200,263.270 213.546,263.600 213.381 C 266.077 212.142,266.520 210.648,264.878 209.075 C 263.634 207.883,263.373 207.796,262.974 208.442 M223.760 208.706 C 223.321 208.999,222.247 210.800,222.511 210.800 C 222.587 210.800,223.049 210.260,223.537 209.600 C 224.461 208.350,224.495 208.216,223.760 208.706 M100.733 211.242 C 99.486 212.535,98.777 213.426,99.158 213.223 C 99.879 212.837,103.200 209.374,103.200 209.009 C 103.200 208.690,103.157 208.729,100.733 211.242 M138.713 209.400 C 138.945 209.840,139.818 210.830,140.653 211.600 C 142.033 212.872,140.857 211.358,138.478 208.800 C 138.375 208.690,138.481 208.960,138.713 209.400 M245.913 209.400 C 246.145 209.840,247.018 210.830,247.853 211.600 C 249.233 212.872,248.057 211.358,245.678 208.800 C 245.575 208.690,245.681 208.960,245.913 209.400 M53.402 210.402 C 53.802 210.844,54.211 211.122,54.312 211.021 C 54.528 210.805,53.388 209.600,52.967 209.600 C 52.807 209.600,53.003 209.961,53.402 210.402 M166.800 211.400 C 167.546 212.170,168.247 212.800,168.357 212.800 C 168.467 212.800,167.946 212.170,167.200 211.400 C 166.454 210.630,165.753 210.000,165.643 210.000 C 165.533 210.000,166.054 210.630,166.800 211.400 M201.600 210.296 C 201.930 210.425,202.435 210.816,202.722 211.165 C 203.165 211.704,203.178 211.663,202.808 210.900 C 202.568 210.405,202.063 210.014,201.686 210.032 C 201.130 210.057,201.114 210.107,201.600 210.296 M239.816 211.877 C 238.461 213.461,238.392 213.624,239.337 213.005 C 240.201 212.438,242.006 209.954,241.510 210.013 C 241.450 210.020,240.687 210.859,239.816 211.877 M64.700 210.682 C 65.195 210.778,66.005 210.778,66.500 210.682 C 66.995 210.587,66.590 210.509,65.600 210.509 C 64.610 210.509,64.205 210.587,64.700 210.682 M91.300 210.687 C 91.905 210.778,92.895 210.778,93.500 210.687 C 94.105 210.595,93.610 210.520,92.400 210.520 C 91.190 210.520,90.695 210.595,91.300 210.687 M148.707 210.690 C 149.426 210.779,150.506 210.777,151.107 210.686 C 151.708 210.595,151.120 210.522,149.800 210.524 C 148.480 210.526,147.988 210.601,148.707 210.690 M174.707 210.690 C 175.426 210.779,176.506 210.777,177.107 210.686 C 177.708 210.595,177.120 210.522,175.800 210.524 C 174.480 210.526,173.988 210.601,174.707 210.690 M230.621 210.829 C 231.512 210.995,232.862 210.998,233.621 210.835 C 234.671 210.610,234.285 210.538,232.000 210.533 C 229.494 210.527,229.267 210.576,230.621 210.829 M255.907 210.690 C 256.626 210.779,257.706 210.777,258.307 210.686 C 258.908 210.595,258.320 210.522,257.000 210.524 C 255.680 210.526,255.188 210.601,255.907 210.690 M54.800 211.410 C 54.800 211.693,57.999 213.735,58.166 213.559 C 58.248 213.471,57.525 212.912,56.558 212.315 C 55.591 211.719,54.800 211.311,54.800 211.410 M182.836 212.557 C 182.581 212.863,181.834 213.338,181.174 213.611 C 180.514 213.884,180.053 214.187,180.150 214.283 C 180.407 214.541,182.573 213.356,183.178 212.626 C 183.464 212.282,183.608 212.000,183.498 212.000 C 183.388 212.000,183.090 212.251,182.836 212.557 M192.598 212.737 C 193.034 213.252,193.753 213.859,194.196 214.086 C 195.045 214.521,194.921 214.387,193.003 212.794 C 191.848 211.835,191.834 211.833,192.598 212.737 M203.246 212.639 C 203.221 213.100,202.795 213.673,202.300 213.912 C 201.805 214.151,201.591 214.358,201.824 214.373 C 202.681 214.428,203.686 213.343,203.490 212.574 C 203.308 211.859,203.289 211.864,203.246 212.639 M142.400 213.053 C 142.400 213.323,145.255 214.478,145.448 214.286 C 145.536 214.197,144.887 213.841,144.004 213.495 C 143.122 213.148,142.400 212.949,142.400 213.053 M168.974 213.158 C 169.097 213.358,169.780 213.724,170.490 213.971 C 171.988 214.494,171.535 213.979,169.875 213.273 C 169.256 213.009,168.850 212.958,168.974 213.158 M249.600 213.053 C 249.600 213.323,252.455 214.478,252.648 214.286 C 252.736 214.197,252.087 213.841,251.204 213.495 C 250.322 213.148,249.600 212.949,249.600 213.053 M61.823 214.853 C 62.470 214.992,64.080 215.105,65.400 215.105 C 66.720 215.105,68.330 214.992,68.977 214.853 C 69.625 214.714,68.015 214.600,65.400 214.600 C 62.785 214.600,61.175 214.714,61.823 214.853 M90.500 214.934 C 91.596 215.137,93.204 215.137,94.300 214.934 C 95.981 214.622,95.762 214.582,92.400 214.582 C 89.038 214.582,88.819 214.622,90.500 214.934 M147.663 214.931 C 148.711 215.124,150.460 215.118,151.663 214.919 C 153.608 214.598,153.440 214.567,149.800 214.578 C 146.380 214.588,146.070 214.639,147.663 214.931 M174.134 214.935 C 175.260 215.147,176.762 215.153,177.725 214.950 C 179.140 214.651,178.858 214.598,175.791 214.586 C 172.505 214.573,172.364 214.602,174.134 214.935 M196.900 214.923 C 197.777 215.132,199.023 215.132,199.900 214.923 C 201.205 214.614,201.010 214.567,198.400 214.567 C 195.790 214.567,195.595 214.614,196.900 214.923 M229.694 214.934 C 231.000 215.136,232.801 215.140,233.879 214.943 C 235.490 214.649,235.149 214.596,231.586 214.588 C 227.710 214.579,227.570 214.605,229.694 214.934 M254.863 214.931 C 255.911 215.124,257.660 215.118,258.863 214.919 C 260.808 214.598,260.640 214.567,257.000 214.578 C 253.580 214.588,253.270 214.639,254.863 214.931 M17.200 260.629 C 17.200 260.754,17.472 261.129,17.804 261.461 C 18.136 261.793,18.341 262.185,18.260 262.332 C 18.179 262.480,18.717 263.190,19.456 263.911 C 20.195 264.633,20.800 265.065,20.800 264.873 C 20.800 264.681,20.415 264.181,19.945 263.762 C 19.474 263.343,18.842 262.415,18.539 261.700 C 18.072 260.595,17.200 259.898,17.200 260.629 M381.368 261.662 C 380.481 263.376,379.597 264.269,378.295 264.764 C 377.242 265.164,376.773 266.000,377.600 266.000 C 377.820 266.000,378.000 265.820,378.000 265.600 C 378.000 265.380,378.276 265.200,378.613 265.200 C 379.494 265.200,382.000 262.570,382.000 261.647 C 382.000 261.218,382.225 260.776,382.500 260.665 C 382.883 260.510,382.886 260.456,382.510 260.432 C 382.241 260.414,381.727 260.968,381.368 261.662 M146.200 265.999 C 213.520 266.110,268.330 266.321,268.000 266.468 C 267.670 266.616,289.405 266.751,316.300 266.768 C 347.708 266.789,365.200 266.661,365.200 266.411 C 365.200 266.185,367.491 265.971,370.700 265.899 C 373.725 265.831,296.910 265.781,200.000 265.787 C 34.043 265.797,30.916 265.810,146.200 265.999 " 
    stroke="none" fill="#60abd2" fill-rule="evenodd"></path>
    <path id="path4" d="M26.000 133.657 C 26.000 133.847,79.995 134.000,147.000 134.000 C 213.550 134.000,268.000 133.865,268.000 133.700 C 268.000 133.535,213.550 133.381,147.000 133.357 C 79.961 133.333,26.000 133.467,26.000 133.657 M364.999 133.601 C 364.809 133.909,366.099 134.019,369.360 133.974 C 371.908 133.939,373.917 133.789,373.825 133.641 C 373.530 133.164,365.293 133.126,364.999 133.601 M16.400 200.000 C 16.400 238.133,16.535 257.600,16.800 257.600 C 17.065 257.600,17.200 238.133,17.200 200.000 C 17.200 161.867,17.065 142.400,16.800 142.400 C 16.535 142.400,16.400 161.867,16.400 200.000 M382.936 199.169 C 382.981 224.679,383.149 245.682,383.309 245.842 C 383.469 246.002,383.600 225.234,383.600 199.690 C 383.600 171.428,383.454 153.157,383.227 153.017 C 382.998 152.875,382.886 170.592,382.936 199.169 M64.900 183.876 C 65.285 183.976,65.915 183.976,66.300 183.876 C 66.685 183.775,66.370 183.693,65.600 183.693 C 64.830 183.693,64.515 183.775,64.900 183.876 M231.905 195.083 C 232.402 195.179,233.122 195.175,233.505 195.075 C 233.887 194.975,233.480 194.896,232.600 194.901 C 231.720 194.905,231.407 194.987,231.905 195.083 M104.093 202.800 C 104.093 203.570,104.175 203.885,104.276 203.500 C 104.376 203.115,104.376 202.485,104.276 202.100 C 104.175 201.715,104.093 202.030,104.093 202.800 M356.581 219.600 C 356.581 227.850,356.634 231.225,356.699 227.100 C 356.764 222.975,356.764 216.225,356.699 212.100 C 356.634 207.975,356.581 211.350,356.581 219.600 M339.380 220.600 C 339.380 228.080,339.434 231.083,339.499 227.274 C 339.565 223.465,339.565 217.345,339.499 213.674 C 339.433 210.003,339.379 213.120,339.380 220.600 M26.000 266.500 C 26.000 266.888,267.252 266.882,267.862 266.494 C 268.115 266.332,213.800 266.200,147.162 266.200 C 80.523 266.200,26.000 266.335,26.000 266.500 M365.200 266.400 C 365.200 266.883,368.676 266.883,369.800 266.400 C 370.357 266.161,369.779 266.048,367.900 266.028 C 366.348 266.012,365.200 266.170,365.200 266.400 M370.800 266.400 C 370.800 266.620,371.531 266.800,372.424 266.800 C 373.404 266.800,373.949 266.642,373.800 266.400 C 373.664 266.180,372.933 266.000,372.176 266.000 C 371.419 266.000,370.800 266.180,370.800 266.400 " stroke="none" fill="#7cbcdc" fill-rule="evenodd">
</path>
</g>
</svg>
